<?xml version="1.0" standalone="no"?>
<!DOCTYPE svg PUBLIC "-//W3C//DTD SVG 20010904//EN"
 "http://www.w3.org/TR/2001/REC-SVG-20010904/DTD/svg10.dtd">
<svg version="1.0" xmlns="http://www.w3.org/2000/svg"
 width="364.000000pt" height="320.000000pt" viewBox="0 0 364.000000 320.000000"
 preserveAspectRatio="xMidYMid meet">

<g transform="translate(0.000000,320.000000) scale(0.100000,-0.100000)"
fill="#000000" stroke="none">
<path d="M865 3193 c-254 -31 -425 -113 -598 -288 -255 -258 -334 -636 -206
-989 52 -144 124 -240 376 -499 770 -790 1379 -1412 1383 -1413 3 -1 153 152
335 340 181 187 541 557 800 822 503 513 552 571 614 726 54 135 65 197 65
368 -1 125 -5 170 -22 231 -42 155 -123 296 -236 412 -165 169 -355 262 -589
287 -231 25 -449 -32 -624 -165 -48 -35 -241 -232 -334 -339 -5 -5 -29 15 -56
45 -178 203 -307 316 -428 377 -136 68 -334 103 -480 85z"/>
</g>
</svg>
